<?xml version="1.0" encoding="UTF-8" standalone="no"?>
<!-- Created with Inkscape (http://www.inkscape.org/) -->

<svg
   xmlns:dc="http://purl.org/dc/elements/1.1/"
   xmlns:cc="http://creativecommons.org/ns#"
   xmlns:rdf="http://www.w3.org/1999/02/22-rdf-syntax-ns#"
   xmlns:svg="http://www.w3.org/2000/svg"
   xmlns="http://www.w3.org/2000/svg"
   xmlns:xlink="http://www.w3.org/1999/xlink"
   xmlns:sodipodi="http://sodipodi.sourceforge.net/DTD/sodipodi-0.dtd"
   xmlns:inkscape="http://www.inkscape.org/namespaces/inkscape"
   width="3in"
   height="1in"
   viewBox="0 0 270.00001 90.000003"
   id="svg4943"
   version="1.1"
   inkscape:version="0.48.5 r10040"
   sodipodi:docname="Sticker-inside.1x3.svg">
  <defs
     id="defs4945">
    <linearGradient
       gradientUnits="userSpaceOnUse"
       y2="49.998001"
       x2="98.517998"
       y1="49.998001"
       x1="1.484"
       id="linearGradient61207"
       xlink:href="#linearGradient61201"
       inkscape:collect="always" />
    <linearGradient
       id="linearGradient61201">
      <stop
         id="stop61203"
         offset="0"
         style="stop-color:#000000;stop-opacity:1;" />
      <stop
         id="stop61205"
         offset="1"
         style="stop-color:#000000;stop-opacity:1;" />
    </linearGradient>
    <linearGradient
       inkscape:collect="always"
       xlink:href="#linearGradient61201"
       id="linearGradient5615"
       gradientUnits="userSpaceOnUse"
       x1="1.484"
       y1="49.998001"
       x2="98.517998"
       y2="49.998001" />
    <linearGradient
       inkscape:collect="always"
       xlink:href="#linearGradient61201"
       id="linearGradient5617"
       gradientUnits="userSpaceOnUse"
       x1="1.484"
       y1="49.998001"
       x2="98.517998"
       y2="49.998001" />
  </defs>
  <sodipodi:namedview
     id="base"
     pagecolor="#ffffff"
     bordercolor="#666666"
     borderopacity="1.0"
     inkscape:pageopacity="0.0"
     inkscape:pageshadow="2"
     inkscape:zoom="4.6444444"
     inkscape:cx="135"
     inkscape:cy="45"
     inkscape:document-units="px"
     inkscape:current-layer="layer1"
     showgrid="false"
     units="in"
     showguides="false"
     inkscape:window-width="1440"
     inkscape:window-height="855"
     inkscape:window-x="18"
     inkscape:window-y="0"
     inkscape:window-maximized="0" />
  <metadata
     id="metadata4948">
    <rdf:RDF>
      <cc:Work
         rdf:about="">
        <dc:format>image/svg+xml</dc:format>
        <dc:type
           rdf:resource="http://purl.org/dc/dcmitype/StillImage" />
        <dc:title></dc:title>
      </cc:Work>
    </rdf:RDF>
  </metadata>
  <g
     inkscape:label="Layer 1"
     inkscape:groupmode="layer"
     id="layer1"
     transform="translate(0,-962.36215)">
    <g
       transform="matrix(1.3209388,0,0,1.3209388,4.5444238,-345.35704)"
       id="layer1-3"
       inkscape:label="Layer 1">
      <g
         transform="matrix(0.52435308,0,0,0.52435308,54.330501,830.64087)"
         id="g11347">
        <path
           style="fill:#ffd75e;fill-opacity:1;stroke:none"
           d="m -52.292903,324.88531 c -0.239,0 -1.01875,0.87525 -1.34375,2.28125 l -1.96875,7.875 -0.65625,2.625 -2.5625,0.8125 c -1.74,0.557 -3.468,1.28425 -5.125,2.15625 l -2.5,1.3125 -2.375,-1.5 -7,-4.46875 -0.0625,-0.0625 -0.09375,-0.0312 c -0.452,-0.315 -1.11775,-0.53125 -1.71875,-0.53125 -0.184,0 -0.63675,0.0147 -0.84375,0.21875 l -4.3125,4.3125 c -0.172,0.168 -0.0755,1.3415 0.6875,2.5625 l 4.46875,7.4375 1.375,2.28125 -1.1875,2.375 c -0.799,1.609 -1.39575,3.077 -1.84375,4.5 l -0.84375,2.6875 -2.71875,0.59375 -7.78125,1.75 -0.09375,0 -0.09375,0.0312 c -1.006,0.181 -2.03125,1.104 -2.03125,1.625 l 0,6.0625 c 0,0.238 0.87825,0.9915 2.28125,1.3125 l 7.96875,2 2.625,0.65625 0.8125,2.53125 c 0.449,1.371 1.035,2.7535 1.75,4.1875 l 1.15625,2.375 -1.34375,2.25 -4.4375,7.40625 c -0.815,1.3 -0.918,2.48425 -0.75,2.65625 l 4.3125,4.25 c 0.213,0.21301 0.69675,0.25 0.84375,0.25 0.598,0 1.26375,-0.21625 1.71875,-0.53125 l 0.09375,-0.0312 0.0625,-0.0625 7.03125,-4.46875 2.375,-1.5 2.5,1.3125 c 1.686,0.89 3.4,1.61225 5.125,2.15625 l 2.59375,0.8125 0.65625,2.625 1.9375,7.75 c 0.343,1.495 1.10575,2.375 1.34375,2.375 l 6.09375,0 c 0.525,0 1.41175,-0.993 1.59375,-2 l 0.03125,-0.0937 0.03125,-0.0937 1.75,-7.90625 0.59375,-2.6875 2.625,-0.875 c 1.587,-0.515 3.187,-1.15974 4.75,-1.96875 l 2.5,-1.3125 2.34375,1.5 6.84375,4.375 0.09375,0.0625 0.0625,0.0312 c 0.455,0.316 1.12075,0.53125 1.71875,0.53125 0.143,0 0.63675,-0.0107 0.84375,-0.21875 l 4.3125,-4.3125 c 0.162,-0.16199 0.0795,-1.3365 -0.6875,-2.5625 l -4.25,-7.09375 -1.40625,-2.3125 1.21875,-2.375 c 0.76,-1.492 1.41325,-3.00599 1.90625,-4.5 l 0.84375,-2.5625 2.59375,-0.625 7.875,-1.96875 c 1.492,-0.342 2.375,-1.137 2.375,-1.375 l 0,-6.03125 c 0,-0.524 -0.998,-1.444 -2,-1.625 l -0.125,-0.0312 -0.09375,0 -7.78125,-1.75 -2.71875,-0.59375 -0.84375,-2.6875 c -0.49,-1.565 -1.142,-3.1355 -2,-4.8125 l -1.21875,-2.40625 1.375,-2.3125 4.21875,-7 c 0.813,-1.301 0.89075,-2.48825 0.71875,-2.65625 l -4.28125,-4.25 c -0.214,-0.213 -0.69775,-0.25 -0.84375,-0.25 -0.597,0 -1.299,0.21625 -1.75,0.53125 l -0.0625,0.0312 -0.09375,0.0625 -6.8125,4.34375 -2.375,1.5 -2.46875,-1.28125 c -1.578,-0.819 -3.2005,-1.50925 -4.8125,-2.03125 l -2.65625,-0.84375 -0.59375,-2.6875 -1.75,-7.875 0,-0.0937 -0.03125,-0.0937 c -0.181,-1.005 -1.101,-2.03125 -1.625,-2.03125 l -6.0625,0 z m 3.0625,24.1875 c 10.729,0 19.46875,8.70625 19.46875,19.40625 0,10.7 -8.73975,19.40625 -19.46875,19.40625 -10.726,0 -19.4375,-8.70625 -19.4375,-19.40625 0,-10.7 8.7115,-19.40625 19.4375,-19.40625 z"
           id="path11308"
           inkscape:connector-curvature="0" />
        <g
           transform="translate(-99.262653,318.49669)"
           id="g11320">
          <g
             id="g11322">
            <path
               id="path11324"
               d="M 92.501,40.823 84.719,39.098 C 84.111,37.161 83.32,35.306 82.406,33.521 l 4.213,-7.01 c 1.572,-2.511 2.364,-6.201 0,-8.568 l -4.292,-4.286 c -1.158,-1.158 -2.714,-1.648 -4.279,-1.648 -1.626,0 -3.269,0.528 -4.499,1.38 l -6.825,4.346 c -1.771,-0.919 -3.62,-1.702 -5.546,-2.326 L 59.429,7.541 C 58.91,4.652 56.384,1.528 53.033,1.528 l -6.061,0 c -3.35,0 -5.403,3.172 -6.067,6.061 l -1.944,7.773 c -2.058,0.655 -4.028,1.492 -5.909,2.481 l -6.996,-4.455 c -1.228,-0.853 -2.873,-1.38 -4.499,-1.38 -1.565,0 -3.118,0.49 -4.279,1.648 l -4.286,4.286 c -2.371,2.367 -1.579,6.058 0,8.568 l 4.429,7.378 c -0.831,1.674 -1.569,3.401 -2.138,5.208 L 7.501,40.821 C 4.612,41.343 1.484,43.866 1.484,47.21 l 0,6.062 c 0,3.343 3.175,5.396 6.064,6.058 l 7.881,1.966 c 0.547,1.666 1.225,3.274 1.995,4.827 l -4.432,7.385 c -1.575,2.507 -2.367,6.196 0,8.564 l 4.289,4.286 c 1.158,1.158 2.71,1.646 4.279,1.646 1.625,0 3.268,-0.526 4.499,-1.379 l 7.013,-4.465 c 1.89,0.996 3.873,1.839 5.94,2.495 l 1.941,7.753 c 0.662,2.887 2.713,6.06 6.063,6.06 l 6.065,0 c 3.35,0 5.877,-3.126 6.396,-6.014 l 1.752,-7.888 c 1.903,-0.615 3.729,-1.391 5.483,-2.299 l 6.837,4.357 c 1.23,0.853 2.873,1.379 4.499,1.379 1.565,0 3.121,-0.488 4.279,-1.646 l 4.292,-4.286 c 2.364,-2.368 1.572,-6.058 0,-8.564 l -4.216,-7.02 c 0.847,-1.664 1.581,-3.396 2.17,-5.192 l 7.881,-1.966 c 2.89,-0.662 6.064,-2.715 6.064,-6.058 l 0,-6.062 c 0,-3.34 -3.124,-5.863 -6.017,-6.386 z m 1.165,12.451 c 0,0.238 -0.895,1.012 -2.387,1.354 l -7.881,1.966 -2.6,0.65 -0.834,2.545 c -0.493,1.494 -1.126,3.009 -1.886,4.501 l -1.223,2.394 1.384,2.301 4.265,7.091 c 0.767,1.226 0.849,2.406 0.687,2.568 l -4.302,4.292 c -0.207,0.208 -0.7,0.227 -0.843,0.227 -0.598,0 -1.283,-0.204 -1.738,-0.52 l -0.072,-0.052 -0.079,-0.05 -6.841,-4.359 -2.357,-1.502 -2.481,1.286 c -1.563,0.809 -3.157,1.476 -4.744,1.991 l -2.642,0.853 -0.602,2.71 -1.749,7.887 -0.022,0.095 -0.017,0.096 c -0.182,1.007 -1.097,2.024 -1.622,2.024 l -6.065,0 c -0.238,0 -1.015,-0.891 -1.358,-2.386 l -1.941,-7.755 -0.659,-2.628 -2.586,-0.817 c -1.725,-0.544 -3.452,-1.27 -5.138,-2.16 l -2.494,-1.314 -2.377,1.515 -7.013,4.467 -0.08,0.048 -0.076,0.054 c -0.455,0.315 -1.136,0.52 -1.734,0.52 -0.147,0 -0.637,-0.019 -0.85,-0.232 l -4.289,-4.28 c -0.168,-0.172 -0.086,-1.349 0.729,-2.649 L 21.585,68.62 22.95,66.348 21.769,63.971 C 21.054,62.537 20.49,61.171 20.041,59.8 L 19.21,57.249 16.605,56.599 8.631,54.612 C 7.228,54.291 6.334,53.517 6.334,53.279 l 0,-6.062 c 0,-0.521 1.021,-1.438 2.027,-1.619 l 0.095,-0.017 0.096,-0.019 7.782,-1.728 2.736,-0.608 0.84,-2.669 c 0.448,-1.423 1.053,-2.899 1.852,-4.508 l 1.184,-2.374 -1.368,-2.275 -4.48,-7.458 c -0.763,-1.221 -0.849,-2.399 -0.677,-2.567 l 4.286,-4.286 c 0.207,-0.204 0.665,-0.226 0.849,-0.226 0.601,0 1.279,0.201 1.731,0.516 l 0.079,0.054 0.083,0.051 6.997,4.455 2.376,1.508 2.492,-1.311 c 1.657,-0.872 3.379,-1.594 5.119,-2.151 l 2.578,-0.821 0.655,-2.622 1.966,-7.862 c 0.325,-1.406 1.101,-2.297 1.34,-2.297 l 6.061,0 c 0.524,0 1.441,1.018 1.622,2.023 l 0.017,0.096 0.022,0.096 1.746,7.868 0.602,2.708 2.642,0.853 c 1.612,0.522 3.229,1.199 4.807,2.018 l 2.482,1.289 2.36,-1.502 6.825,-4.347 0.079,-0.051 0.076,-0.054 c 0.451,-0.315 1.137,-0.516 1.734,-0.516 0.146,0 0.636,0.016 0.85,0.229 l 4.285,4.279 c 0.172,0.168 0.09,1.349 -0.723,2.65 l -4.212,7.006 -1.387,2.307 1.225,2.396 c 0.858,1.677 1.511,3.252 2.001,4.817 l 0.84,2.679 2.739,0.608 7.783,1.728 0.095,0.019 0.1,0.017 c 1.002,0.181 2.023,1.095 2.023,1.619 l 0,6.056 z M 50.042,30.582 c -10.726,0 -19.456,8.705 -19.456,19.405 0,10.7 8.73,19.405 19.456,19.405 10.729,0 19.456,-8.705 19.456,-19.405 0,-10.7 -8.727,-19.405 -19.456,-19.405 z m 0.041,34.073 c -8.087,0 -14.667,-6.559 -14.667,-14.614 0,-8.055 6.58,-14.614 14.667,-14.614 8.091,0 14.674,6.558 14.674,14.614 0,8.056 -6.583,14.614 -14.674,14.614 z"
               inkscape:connector-curvature="0" />
          </g>
        </g>
      </g>
      <rect
         style="fill:#008080;fill-opacity:1;stroke:none"
         id="rect60911"
         width="27.779984"
         height="27.779982"
         x="14.610005"
         y="1009.9722"
         inkscape:export-filename="/home/alexander/Documents/Bachelorarbeit2/svg/presentation/wp.png"
         inkscape:export-xdpi="300.0311"
         inkscape:export-ydpi="300.0311"
         rx="4.8736811"
         ry="4.8736811" />
      <path
         style="fill:#ffd75e;fill-opacity:1;stroke:none"
         d="m 26.810046,999.54951 c -0.133245,0 -0.567964,0.48799 -0.749154,1.27179 l -1.097599,4.3904 -0.365867,1.4635 -1.42862,0.453 c -0.970069,0.3105 -1.933447,0.716 -2.857242,1.2021 l -1.393777,0.7317 -1.324087,-0.8362 -3.902574,-2.4914 -0.03484,-0.035 -0.05227,-0.017 c -0.251995,-0.1756 -0.623157,-0.2962 -0.958221,-0.2962 -0.102582,0 -0.354995,0.01 -0.4704,0.122 l -2.4042641,2.4043 c -0.095892,0.094 -0.042092,0.7479 0.3832881,1.4286 l 2.491376,4.1465 0.766577,1.2718 -0.662044,1.3241 c -0.445451,0.897 -0.778145,1.7154 -1.02791,2.5088 l -0.4704,1.4983 -1.5157315,0.331 -4.3381291,0.9757 -0.052267,0 -0.052267,0.017 c -0.5608556,0.1009 -1.1324433,0.6155 -1.1324433,0.9059 l 0,3.3799 c 0,0.1327 0.4896336,0.5528 1.2718209,0.7318 l 4.4426623,1.115 1.4634647,0.3659 0.452978,1.4112 c 0.250322,0.7643 0.577023,1.5351 0.975643,2.3345 l 0.644622,1.3241 -0.749155,1.2544 -2.473953,4.1291 c -0.4543711,0.7247 -0.5117947,1.385 -0.4181329,1.4809 l 2.4042639,2.3694 c 0.11875,0.1187 0.388446,0.1394 0.4704,0.1394 0.333391,0 0.704554,-0.1206 0.958221,-0.2962 l 0.05227,-0.017 0.03484,-0.035 3.919996,-2.4914 1.324088,-0.8362 1.393776,0.7317 c 0.939963,0.4962 1.895536,0.8989 2.857242,1.2021 l 1.446043,0.453 0.365866,1.4635 1.080177,4.3207 c 0.191226,0.8335 0.616467,1.3241 0.749155,1.3241 l 3.39733,0 c 0.292693,0 0.787065,-0.5536 0.888532,-1.115 l 0.01742,-0.052 0.01742,-0.052 0.975644,-4.4078 0.331022,-1.4983 1.463465,-0.4878 c 0.884769,-0.2871 1.776786,-0.6466 2.648175,-1.0976 l 1.393777,-0.7317 1.306665,0.8362 3.815463,2.4391 0.05227,0.035 0.03484,0.017 c 0.253667,0.1762 0.62483,0.2962 0.958221,0.2962 0.07972,0 0.354995,-0.01 0.4704,-0.122 l 2.404264,-2.4043 c 0.09032,-0.09 0.04432,-0.7451 -0.383289,-1.4286 l -2.369419,-3.9548 -0.784,-1.2893 0.679466,-1.324 c 0.423708,-0.8318 0.787902,-1.6759 1.062755,-2.5088 l 0.470399,-1.4287 1.446043,-0.3484 4.390396,-1.0976 c 0.831806,-0.1907 1.324088,-0.6339 1.324088,-0.7666 l 0,-3.3625 c 0,-0.2921 -0.556396,-0.805 -1.115021,-0.9059 l -0.06969,-0.017 -0.05227,0 -4.338129,-0.9757 -1.515732,-0.331 -0.470399,-1.4983 c -0.273181,-0.8725 -0.636677,-1.7481 -1.115021,-2.683 l -0.679466,-1.3415 0.766577,-1.2893 2.351997,-3.9026 c 0.453256,-0.7253 0.496603,-1.3872 0.400711,-1.4809 l -2.386842,-2.3694 c -0.119307,-0.1187 -0.389003,-0.1394 -0.4704,-0.1394 -0.332833,0 -0.724206,0.1206 -0.975643,0.2962 l -0.03484,0.017 -0.05227,0.035 -3.798041,2.4217 -1.324087,0.8362 -1.376355,-0.7143 c -0.879751,-0.4566 -1.784312,-0.8414 -2.683019,-1.1324 l -1.480888,-0.4704 -0.331022,-1.4983 -0.975643,-4.3904 0,-0.052 -0.01742,-0.052 c -0.10091,-0.5603 -0.613819,-1.13249 -0.905955,-1.13249 l -3.379908,0 z m 1.707376,13.48479 c 5.981531,0 10.854034,4.8538 10.854034,10.8192 0,5.9654 -4.872503,10.8192 -10.854034,10.8192 -5.979858,0 -10.836611,-4.8538 -10.836611,-10.8192 0,-5.9654 4.856753,-10.8192 10.836611,-10.8192 z"
         id="path60915"
         inkscape:connector-curvature="0" />
      <g
         transform="matrix(0.55751056,0,0,0.55751056,0.62391474,995.98779)"
         id="g60917">
        <g
           id="g60919">
          <path
             id="path60921"
             d="M 92.501,40.823 84.719,39.098 C 84.111,37.161 83.32,35.306 82.406,33.521 l 4.213,-7.01 c 1.572,-2.511 2.364,-6.201 0,-8.568 l -4.292,-4.286 c -1.158,-1.158 -2.714,-1.648 -4.279,-1.648 -1.626,0 -3.269,0.528 -4.499,1.38 l -6.825,4.346 c -1.771,-0.919 -3.62,-1.702 -5.546,-2.326 L 59.429,7.541 C 58.91,4.652 56.384,1.528 53.033,1.528 l -6.061,0 c -3.35,0 -5.403,3.172 -6.067,6.061 l -1.944,7.773 c -2.058,0.655 -4.028,1.492 -5.909,2.481 l -6.996,-4.455 c -1.228,-0.853 -2.873,-1.38 -4.499,-1.38 -1.565,0 -3.118,0.49 -4.279,1.648 l -4.286,4.286 c -2.371,2.367 -1.579,6.058 0,8.568 l 4.429,7.378 c -0.831,1.674 -1.569,3.401 -2.138,5.208 L 7.501,40.821 C 4.612,41.343 1.484,43.866 1.484,47.21 l 0,6.062 c 0,3.343 3.175,5.396 6.064,6.058 l 7.881,1.966 c 0.547,1.666 1.225,3.274 1.995,4.827 l -4.432,7.385 c -1.575,2.507 -2.367,6.196 0,8.564 l 4.289,4.286 c 1.158,1.158 2.71,1.646 4.279,1.646 1.625,0 3.268,-0.526 4.499,-1.379 l 7.013,-4.465 c 1.89,0.996 3.873,1.839 5.94,2.495 l 1.941,7.753 c 0.662,2.887 2.713,6.06 6.063,6.06 l 6.065,0 c 3.35,0 5.877,-3.126 6.396,-6.014 l 1.752,-7.888 c 1.903,-0.615 3.729,-1.391 5.483,-2.299 l 6.837,4.357 c 1.23,0.853 2.873,1.379 4.499,1.379 1.565,0 3.121,-0.488 4.279,-1.646 l 4.292,-4.286 c 2.364,-2.368 1.572,-6.058 0,-8.564 l -4.216,-7.02 c 0.847,-1.664 1.581,-3.396 2.17,-5.192 l 7.881,-1.966 c 2.89,-0.662 6.064,-2.715 6.064,-6.058 l 0,-6.062 c 0,-3.34 -3.124,-5.863 -6.017,-6.386 z m 1.165,12.451 c 0,0.238 -0.895,1.012 -2.387,1.354 l -7.881,1.966 -2.6,0.65 -0.834,2.545 c -0.493,1.494 -1.126,3.009 -1.886,4.501 l -1.223,2.394 1.384,2.301 4.265,7.091 c 0.767,1.226 0.849,2.406 0.687,2.568 l -4.302,4.292 c -0.207,0.208 -0.7,0.227 -0.843,0.227 -0.598,0 -1.283,-0.204 -1.738,-0.52 l -0.072,-0.052 -0.079,-0.05 -6.841,-4.359 -2.357,-1.502 -2.481,1.286 c -1.563,0.809 -3.157,1.476 -4.744,1.991 l -2.642,0.853 -0.602,2.71 -1.749,7.887 -0.022,0.095 -0.017,0.096 c -0.182,1.007 -1.097,2.024 -1.622,2.024 l -6.065,0 c -0.238,0 -1.015,-0.891 -1.358,-2.386 l -1.941,-7.755 -0.659,-2.628 -2.586,-0.817 c -1.725,-0.544 -3.452,-1.27 -5.138,-2.16 l -2.494,-1.314 -2.377,1.515 -7.013,4.467 -0.08,0.048 -0.076,0.054 c -0.455,0.315 -1.136,0.52 -1.734,0.52 -0.147,0 -0.637,-0.019 -0.85,-0.232 l -4.289,-4.28 c -0.168,-0.172 -0.086,-1.349 0.729,-2.649 L 21.585,68.62 22.95,66.348 21.769,63.971 C 21.054,62.537 20.49,61.171 20.041,59.8 L 19.21,57.249 16.605,56.599 8.631,54.612 C 7.228,54.291 6.334,53.517 6.334,53.279 l 0,-6.062 c 0,-0.521 1.021,-1.438 2.027,-1.619 l 0.095,-0.017 0.096,-0.019 7.782,-1.728 2.736,-0.608 0.84,-2.669 c 0.448,-1.423 1.053,-2.899 1.852,-4.508 l 1.184,-2.374 -1.368,-2.275 -4.48,-7.458 c -0.763,-1.221 -0.849,-2.399 -0.677,-2.567 l 4.286,-4.286 c 0.207,-0.204 0.665,-0.226 0.849,-0.226 0.601,0 1.279,0.201 1.731,0.516 l 0.079,0.054 0.083,0.051 6.997,4.455 2.376,1.508 2.492,-1.311 c 1.657,-0.872 3.379,-1.594 5.119,-2.151 l 2.578,-0.821 0.655,-2.622 1.966,-7.862 c 0.325,-1.406 1.101,-2.297 1.34,-2.297 l 6.061,0 c 0.524,0 1.441,1.018 1.622,2.023 l 0.017,0.096 0.022,0.096 1.746,7.868 0.602,2.708 2.642,0.853 c 1.612,0.522 3.229,1.199 4.807,2.018 l 2.482,1.289 2.36,-1.502 6.825,-4.347 0.079,-0.051 0.076,-0.054 c 0.451,-0.315 1.137,-0.516 1.734,-0.516 0.146,0 0.636,0.016 0.85,0.229 l 4.285,4.279 c 0.172,0.168 0.09,1.349 -0.723,2.65 l -4.212,7.006 -1.387,2.307 1.225,2.396 c 0.858,1.677 1.511,3.252 2.001,4.817 l 0.84,2.679 2.739,0.608 7.783,1.728 0.095,0.019 0.1,0.017 c 1.002,0.181 2.023,1.095 2.023,1.619 l 0,6.056 z M 50.042,30.582 c -10.726,0 -19.456,8.705 -19.456,19.405 0,10.7 8.73,19.405 19.456,19.405 10.729,0 19.456,-8.705 19.456,-19.405 0,-10.7 -8.727,-19.405 -19.456,-19.405 z m 0.041,34.073 c -8.087,0 -14.667,-6.559 -14.667,-14.614 0,-8.055 6.58,-14.614 14.667,-14.614 8.091,0 14.674,6.558 14.674,14.614 0,8.056 -6.583,14.614 -14.674,14.614 z"
             inkscape:connector-curvature="0" />
        </g>
      </g>
      <g
         transform="matrix(0.55751056,0,0,0.55751056,1.0173839,996.38127)"
         id="g61189"
         style="opacity:0.33179728">
        <g
           id="g61191">
          <path
             id="path61193"
             d="M 92.501,40.823 84.719,39.098 C 84.111,37.161 83.32,35.306 82.406,33.521 l 4.213,-7.01 c 1.572,-2.511 2.364,-6.201 0,-8.568 l -4.292,-4.286 c -1.158,-1.158 -2.714,-1.648 -4.279,-1.648 -1.626,0 -3.269,0.528 -4.499,1.38 l -6.825,4.346 c -1.771,-0.919 -3.62,-1.702 -5.546,-2.326 L 59.429,7.541 C 58.91,4.652 56.384,1.528 53.033,1.528 l -6.061,0 c -3.35,0 -5.403,3.172 -6.067,6.061 l -1.944,7.773 c -2.058,0.655 -4.028,1.492 -5.909,2.481 l -6.996,-4.455 c -1.228,-0.853 -2.873,-1.38 -4.499,-1.38 -1.565,0 -3.118,0.49 -4.279,1.648 l -4.286,4.286 c -2.371,2.367 -1.579,6.058 0,8.568 l 4.429,7.378 c -0.831,1.674 -1.569,3.401 -2.138,5.208 L 7.501,40.821 C 4.612,41.343 1.484,43.866 1.484,47.21 l 0,6.062 c 0,3.343 3.175,5.396 6.064,6.058 l 7.881,1.966 c 0.547,1.666 1.225,3.274 1.995,4.827 l -4.432,7.385 c -1.575,2.507 -2.367,6.196 0,8.564 l 4.289,4.286 c 1.158,1.158 2.71,1.646 4.279,1.646 1.625,0 3.268,-0.526 4.499,-1.379 l 7.013,-4.465 c 1.89,0.996 3.873,1.839 5.94,2.495 l 1.941,7.753 c 0.662,2.887 2.713,6.06 6.063,6.06 l 6.065,0 c 3.35,0 5.877,-3.126 6.396,-6.014 l 1.752,-7.888 c 1.903,-0.615 3.729,-1.391 5.483,-2.299 l 6.837,4.357 c 1.23,0.853 2.873,1.379 4.499,1.379 1.565,0 3.121,-0.488 4.279,-1.646 l 4.292,-4.286 c 2.364,-2.368 1.572,-6.058 0,-8.564 l -4.216,-7.02 c 0.847,-1.664 1.581,-3.396 2.17,-5.192 l 7.881,-1.966 c 2.89,-0.662 6.064,-2.715 6.064,-6.058 l 0,-6.062 c 0,-3.34 -3.124,-5.863 -6.017,-6.386 z m 1.165,12.451 c 0,0.238 -0.895,1.012 -2.387,1.354 l -7.881,1.966 -2.6,0.65 -0.834,2.545 c -0.493,1.494 -1.126,3.009 -1.886,4.501 l -1.223,2.394 1.384,2.301 4.265,7.091 c 0.767,1.226 0.849,2.406 0.687,2.568 l -4.302,4.292 c -0.207,0.208 -0.7,0.227 -0.843,0.227 -0.598,0 -1.283,-0.204 -1.738,-0.52 l -0.072,-0.052 -0.079,-0.05 -6.841,-4.359 -2.357,-1.502 -2.481,1.286 c -1.563,0.809 -3.157,1.476 -4.744,1.991 l -2.642,0.853 -0.602,2.71 -1.749,7.887 -0.022,0.095 -0.017,0.096 c -0.182,1.007 -1.097,2.024 -1.622,2.024 l -6.065,0 c -0.238,0 -1.015,-0.891 -1.358,-2.386 l -1.941,-7.755 -0.659,-2.628 -2.586,-0.817 c -1.725,-0.544 -3.452,-1.27 -5.138,-2.16 l -2.494,-1.314 -2.377,1.515 -7.013,4.467 -0.08,0.048 -0.076,0.054 c -0.455,0.315 -1.136,0.52 -1.734,0.52 -0.147,0 -0.637,-0.019 -0.85,-0.232 l -4.289,-4.28 c -0.168,-0.172 -0.086,-1.349 0.729,-2.649 L 21.585,68.62 22.95,66.348 21.769,63.971 C 21.054,62.537 20.49,61.171 20.041,59.8 L 19.21,57.249 16.605,56.599 8.631,54.612 C 7.228,54.291 6.334,53.517 6.334,53.279 l 0,-6.062 c 0,-0.521 1.021,-1.438 2.027,-1.619 l 0.095,-0.017 0.096,-0.019 7.782,-1.728 2.736,-0.608 0.84,-2.669 c 0.448,-1.423 1.053,-2.899 1.852,-4.508 l 1.184,-2.374 -1.368,-2.275 -4.48,-7.458 c -0.763,-1.221 -0.849,-2.399 -0.677,-2.567 l 4.286,-4.286 c 0.207,-0.204 0.665,-0.226 0.849,-0.226 0.601,0 1.279,0.201 1.731,0.516 l 0.079,0.054 0.083,0.051 6.997,4.455 2.376,1.508 2.492,-1.311 c 1.657,-0.872 3.379,-1.594 5.119,-2.151 l 2.578,-0.821 0.655,-2.622 1.966,-7.862 c 0.325,-1.406 1.101,-2.297 1.34,-2.297 l 6.061,0 c 0.524,0 1.441,1.018 1.622,2.023 l 0.017,0.096 0.022,0.096 1.746,7.868 0.602,2.708 2.642,0.853 c 1.612,0.522 3.229,1.199 4.807,2.018 l 2.482,1.289 2.36,-1.502 6.825,-4.347 0.079,-0.051 0.076,-0.054 c 0.451,-0.315 1.137,-0.516 1.734,-0.516 0.146,0 0.636,0.016 0.85,0.229 l 4.285,4.279 c 0.172,0.168 0.09,1.349 -0.723,2.65 l -4.212,7.006 -1.387,2.307 1.225,2.396 c 0.858,1.677 1.511,3.252 2.001,4.817 l 0.84,2.679 2.739,0.608 7.783,1.728 0.095,0.019 0.1,0.017 c 1.002,0.181 2.023,1.095 2.023,1.619 l 0,6.056 z M 50.042,30.582 c -10.726,0 -19.456,8.705 -19.456,19.405 0,10.7 8.73,19.405 19.456,19.405 10.729,0 19.456,-8.705 19.456,-19.405 0,-10.7 -8.727,-19.405 -19.456,-19.405 z m 0.041,34.073 c -8.087,0 -14.667,-6.559 -14.667,-14.614 0,-8.055 6.58,-14.614 14.667,-14.614 8.091,0 14.674,6.558 14.674,14.614 0,8.056 -6.583,14.614 -14.674,14.614 z"
             inkscape:connector-curvature="0" />
        </g>
      </g>
      <g
         style="opacity:0.33179728;fill:url(#linearGradient61207);fill-opacity:1"
         id="g61177"
         transform="matrix(0.55751056,0,0,0.55751056,0.80948854,996.17337)">
        <g
           style="fill:url(#linearGradient5617);fill-opacity:1"
           id="g61179">
          <path
             style="fill:url(#linearGradient5615);fill-opacity:1"
             inkscape:connector-curvature="0"
             d="M 92.501,40.823 84.719,39.098 C 84.111,37.161 83.32,35.306 82.406,33.521 l 4.213,-7.01 c 1.572,-2.511 2.364,-6.201 0,-8.568 l -4.292,-4.286 c -1.158,-1.158 -2.714,-1.648 -4.279,-1.648 -1.626,0 -3.269,0.528 -4.499,1.38 l -6.825,4.346 c -1.771,-0.919 -3.62,-1.702 -5.546,-2.326 L 59.429,7.541 C 58.91,4.652 56.384,1.528 53.033,1.528 l -6.061,0 c -3.35,0 -5.403,3.172 -6.067,6.061 l -1.944,7.773 c -2.058,0.655 -4.028,1.492 -5.909,2.481 l -6.996,-4.455 c -1.228,-0.853 -2.873,-1.38 -4.499,-1.38 -1.565,0 -3.118,0.49 -4.279,1.648 l -4.286,4.286 c -2.371,2.367 -1.579,6.058 0,8.568 l 4.429,7.378 c -0.831,1.674 -1.569,3.401 -2.138,5.208 L 7.501,40.821 C 4.612,41.343 1.484,43.866 1.484,47.21 l 0,6.062 c 0,3.343 3.175,5.396 6.064,6.058 l 7.881,1.966 c 0.547,1.666 1.225,3.274 1.995,4.827 l -4.432,7.385 c -1.575,2.507 -2.367,6.196 0,8.564 l 4.289,4.286 c 1.158,1.158 2.71,1.646 4.279,1.646 1.625,0 3.268,-0.526 4.499,-1.379 l 7.013,-4.465 c 1.89,0.996 3.873,1.839 5.94,2.495 l 1.941,7.753 c 0.662,2.887 2.713,6.06 6.063,6.06 l 6.065,0 c 3.35,0 5.877,-3.126 6.396,-6.014 l 1.752,-7.888 c 1.903,-0.615 3.729,-1.391 5.483,-2.299 l 6.837,4.357 c 1.23,0.853 2.873,1.379 4.499,1.379 1.565,0 3.121,-0.488 4.279,-1.646 l 4.292,-4.286 c 2.364,-2.368 1.572,-6.058 0,-8.564 l -4.216,-7.02 c 0.847,-1.664 1.581,-3.396 2.17,-5.192 l 7.881,-1.966 c 2.89,-0.662 6.064,-2.715 6.064,-6.058 l 0,-6.062 c 0,-3.34 -3.124,-5.863 -6.017,-6.386 z m 1.165,12.451 c 0,0.238 -0.895,1.012 -2.387,1.354 l -7.881,1.966 -2.6,0.65 -0.834,2.545 c -0.493,1.494 -1.126,3.009 -1.886,4.501 l -1.223,2.394 1.384,2.301 4.265,7.091 c 0.767,1.226 0.849,2.406 0.687,2.568 l -4.302,4.292 c -0.207,0.208 -0.7,0.227 -0.843,0.227 -0.598,0 -1.283,-0.204 -1.738,-0.52 l -0.072,-0.052 -0.079,-0.05 -6.841,-4.359 -2.357,-1.502 -2.481,1.286 c -1.563,0.809 -3.157,1.476 -4.744,1.991 l -2.642,0.853 -0.602,2.71 -1.749,7.887 -0.022,0.095 -0.017,0.096 c -0.182,1.007 -1.097,2.024 -1.622,2.024 l -6.065,0 c -0.238,0 -1.015,-0.891 -1.358,-2.386 l -1.941,-7.755 -0.659,-2.628 -2.586,-0.817 c -1.725,-0.544 -3.452,-1.27 -5.138,-2.16 l -2.494,-1.314 -2.377,1.515 -7.013,4.467 -0.08,0.048 -0.076,0.054 c -0.455,0.315 -1.136,0.52 -1.734,0.52 -0.147,0 -0.637,-0.019 -0.85,-0.232 l -4.289,-4.28 c -0.168,-0.172 -0.086,-1.349 0.729,-2.649 L 21.585,68.62 22.95,66.348 21.769,63.971 C 21.054,62.537 20.49,61.171 20.041,59.8 L 19.21,57.249 16.605,56.599 8.631,54.612 C 7.228,54.291 6.334,53.517 6.334,53.279 l 0,-6.062 c 0,-0.521 1.021,-1.438 2.027,-1.619 l 0.095,-0.017 0.096,-0.019 7.782,-1.728 2.736,-0.608 0.84,-2.669 c 0.448,-1.423 1.053,-2.899 1.852,-4.508 l 1.184,-2.374 -1.368,-2.275 -4.48,-7.458 c -0.763,-1.221 -0.849,-2.399 -0.677,-2.567 l 4.286,-4.286 c 0.207,-0.204 0.665,-0.226 0.849,-0.226 0.601,0 1.279,0.201 1.731,0.516 l 0.079,0.054 0.083,0.051 6.997,4.455 2.376,1.508 2.492,-1.311 c 1.657,-0.872 3.379,-1.594 5.119,-2.151 l 2.578,-0.821 0.655,-2.622 1.966,-7.862 c 0.325,-1.406 1.101,-2.297 1.34,-2.297 l 6.061,0 c 0.524,0 1.441,1.018 1.622,2.023 l 0.017,0.096 0.022,0.096 1.746,7.868 0.602,2.708 2.642,0.853 c 1.612,0.522 3.229,1.199 4.807,2.018 l 2.482,1.289 2.36,-1.502 6.825,-4.347 0.079,-0.051 0.076,-0.054 c 0.451,-0.315 1.137,-0.516 1.734,-0.516 0.146,0 0.636,0.016 0.85,0.229 l 4.285,4.279 c 0.172,0.168 0.09,1.349 -0.723,2.65 l -4.212,7.006 -1.387,2.307 1.225,2.396 c 0.858,1.677 1.511,3.252 2.001,4.817 l 0.84,2.679 2.739,0.608 7.783,1.728 0.095,0.019 0.1,0.017 c 1.002,0.181 2.023,1.095 2.023,1.619 l 0,6.056 z M 50.042,30.582 c -10.726,0 -19.456,8.705 -19.456,19.405 0,10.7 8.73,19.405 19.456,19.405 10.729,0 19.456,-8.705 19.456,-19.405 0,-10.7 -8.727,-19.405 -19.456,-19.405 z m 0.041,34.073 c -8.087,0 -14.667,-6.559 -14.667,-14.614 0,-8.055 6.58,-14.614 14.667,-14.614 8.091,0 14.674,6.558 14.674,14.614 0,8.056 -6.583,14.614 -14.674,14.614 z"
             id="path61181" />
        </g>
      </g>
    </g>
    <text
       xml:space="preserve"
       style="font-style:normal;font-variant:normal;font-weight:bold;font-stretch:normal;font-size:36.81441879px;line-height:125%;font-family:'Alegreya Sans SC';-inkscape-font-specification:'Alegreya Sans SC, Bold';text-align:start;letter-spacing:0px;word-spacing:0px;writing-mode:lr-tb;text-anchor:start;fill:#000000;fill-opacity:1;stroke:none;stroke-width:1px;stroke-linecap:butt;stroke-linejoin:miter;stroke-opacity:1"
       x="82.157356"
       y="1010.8656"
       id="text4164"
       sodipodi:linespacing="125%"><tspan
         sodipodi:role="line"
         id="tspan4166"
         x="82.157356"
         y="1010.8656">Machinekit</tspan><tspan
         sodipodi:role="line"
         x="82.157356"
         y="1056.8837"
         id="tspan4168"
         style="font-style:normal;font-variant:normal;font-weight:bold;font-stretch:normal;font-size:36.81441879px;line-height:125%;font-family:'Alegreya Sans SC';-inkscape-font-specification:'Alegreya Sans SC, Bold';text-align:start;writing-mode:lr-tb;text-anchor:start" /></text>
    <text
       xml:space="preserve"
       style="font-size:16.36196327px;font-style:normal;font-variant:normal;font-weight:bold;font-stretch:normal;text-align:start;line-height:125%;letter-spacing:0px;word-spacing:0px;writing-mode:lr-tb;text-anchor:start;fill:#000000;fill-opacity:1;stroke:none;font-family:Alegreya Sans SC;-inkscape-font-specification:'Alegreya Sans SC, Bold'"
       x="144.2975"
       y="1031.5109"
       id="text4170"
       sodipodi:linespacing="125%"><tspan
         sodipodi:role="line"
         id="tspan4172"
         x="144.2975"
         y="1031.5109"
         style="font-size:20px;font-style:normal;font-variant:normal;font-weight:bold;font-stretch:normal;text-align:start;line-height:125%;writing-mode:lr-tb;text-anchor:start;font-family:Alegreya Sans SC;-inkscape-font-specification:'Alegreya Sans SC, Bold'">inside</tspan></text>
    <text
       xml:space="preserve"
       style="font-size:16.36196327px;font-style:normal;font-variant:normal;font-weight:bold;font-stretch:normal;text-align:start;line-height:125%;letter-spacing:0px;word-spacing:0px;writing-mode:lr-tb;text-anchor:start;fill:#000000;fill-opacity:1;stroke:none;font-family:Alegreya Sans SC;-inkscape-font-specification:'Alegreya Sans SC, Bold'"
       x="212.89648"
       y="1027.4199"
       id="text4174"
       sodipodi:linespacing="125%"><tspan
         sodipodi:role="line"
         id="tspan4176"
         x="212.89648"
         y="1027.4199"
         style="font-size:16.36196327px;font-style:normal;font-variant:normal;font-weight:bold;font-stretch:normal;text-align:start;line-height:125%;writing-mode:lr-tb;text-anchor:start;font-family:Alegreya Sans SC;-inkscape-font-specification:'Alegreya Sans SC, Bold'" /></text>
    <text
       xml:space="preserve"
       style="font-size:16.36196327px;font-style:normal;font-variant:normal;font-weight:bold;font-stretch:normal;text-align:start;line-height:125%;letter-spacing:0px;word-spacing:0px;writing-mode:lr-tb;text-anchor:start;fill:#000000;fill-opacity:1;stroke:none;font-family:Alegreya Sans SC;-inkscape-font-specification:'Alegreya Sans SC, Bold'"
       x="82.96727"
       y="1027.4199"
       id="text4170-8"
       sodipodi:linespacing="125%"><tspan
         sodipodi:role="line"
         id="tspan4172-1"
         x="82.96727"
         y="1027.4199"
         style="font-size:16.36196327px;font-style:normal;font-variant:normal;font-weight:bold;font-stretch:normal;text-align:start;line-height:125%;writing-mode:lr-tb;text-anchor:start;font-family:Alegreya Sans SC;-inkscape-font-specification:'Alegreya Sans SC, Bold'" /></text>
  </g>
</svg>
